<?xml version="1.0" encoding="UTF-8" standalone="no"?>
<svg
   xmlns:dc="http://purl.org/dc/elements/1.1/"
   xmlns:cc="http://creativecommons.org/ns#"
   xmlns:rdf="http://www.w3.org/1999/02/22-rdf-syntax-ns#"
   xmlns:svg="http://www.w3.org/2000/svg"
   xmlns="http://www.w3.org/2000/svg"
   xmlns:sodipodi="http://sodipodi.sourceforge.net/DTD/sodipodi-0.dtd"
   xmlns:inkscape="http://www.inkscape.org/namespaces/inkscape"
   width="294"
   height="345"
   version="1.1"
   id="svg62"
   sodipodi:docname="cactus.svg"
   inkscape:version="0.92.2 (5c3e80d, 2017-08-06)"
   inkscape:export-filename="C:\Users\el\Downloads\cactus.png"
   inkscape:export-xdpi="720"
   inkscape:export-ydpi="720">
  <metadata
     id="metadata68">
    <rdf:RDF>
      <cc:Work
         rdf:about="">
        <dc:format>image/svg+xml</dc:format>
        <dc:type
           rdf:resource="http://purl.org/dc/dcmitype/StillImage" />
      </cc:Work>
    </rdf:RDF>
  </metadata>
  <defs
     id="defs66" />
  <sodipodi:namedview
     pagecolor="#ffffff"
     bordercolor="#666666"
     borderopacity="1"
     objecttolerance="10"
     gridtolerance="10"
     guidetolerance="10"
     inkscape:pageopacity="0"
     inkscape:pageshadow="2"
     inkscape:window-width="1366"
     inkscape:window-height="715"
     id="namedview64"
     showgrid="false"
     inkscape:zoom="1.3681159"
     inkscape:cx="104.16878"
     inkscape:cy="153.18272"
     inkscape:window-x="-8"
     inkscape:window-y="-8"
     inkscape:window-maximized="1"
     inkscape:current-layer="svg62" />
  <path
     style="fill:#5da234"
     d="m 150,0 c -27.61424,0 -50,20.147186 -50,45 0.01,0.667105 0.0356,1.333937 0.0781,2 H 100 v 162.16406 c 2.77863,0.037 4.9651,0.37378 6.51562,1.03321 1.64258,0.67968 2.83204,1.80208 3.56836,3.36914 0.73634,1.56706 1.10547,4.09895 1.10547,7.59179 0,4.0026 0.14063,6.52214 0.42383,7.56055 0.30209,1.03841 0.82224,1.99089 1.5586,2.85937 0.7552,0.84962 2.16083,1.31316 4.21874,1.38868 v 6.79687 c -2.05794,0.0189 -3.60611,0.6315 -4.64453,1.83985 -1.0384,1.20833 -1.55664,3.88932 -1.55664,8.04296 0,3.20964 -0.11523,5.58008 -0.34179,7.10938 -0.22656,1.54817 -0.79297,2.84049 -1.69922,3.87891 -0.90625,1.03841 -2.07487,1.78515 -3.50977,2.23828 -1.34777,0.44334 -3.24152,0.67034 -5.63867,0.69726 V 347 h 100 l -0.17969,-127.98438 v 0 c 0,0 -6.18261,-0.40199 -8.08008,-1.20899 -1.89746,-0.78514 -3.27246,-2.08431 -4.12304,-3.89453 -0.85058,-1.81022 -1.27539,-4.73274 -1.27539,-8.76757 0,-4.44922 -0.15169,-5.39746 -0.45703,-6.64062 -0.30534,-1.24317 -0.89519,-2.37729 -1.76758,-3.40235 -0.8724,-1.04688 -2.51856,-1.61588 -4.93946,-1.70312 v -7.85156 c 2.37728,-0.0218 4.16569,-0.7197 5.36524,-2.09376 1.19955,-1.39582 1.79883,-4.51367 1.79883,-9.35546 0,-3.68588 0.13083,-6.41114 0.39258,-8.17774 0.28353,-1.78841 0.94922,-3.28287 1.99609,-4.48242 1.04687,-1.19954 2.39909,-2.06054 4.05664,-2.58398 1.65755,-0.54525 4.00163,-0.81836 7.0332,-0.81836 H 200 V 47 h -0.11133 C 199.94226,46.334159 199.97938,45.667327 200,45 200,20.147186 177.61424,0 150,0 Z m 107,36 c -17.67311,0 -32,12.536027 -32,28 0.004,1.002338 0.0689,2.00378 0.19531,3 H 225 v 80 c 0,5.9206 -0.0187,18.6483 -25,18.98438 v -0.0859 c -2.20989,0.0974 -3.62134,0.40038 -4.13867,0.93554 -0.61068,0.6543 -0.93685,1.93067 -0.98047,3.82813 -0.13086,5.23437 -0.30534,8.63672 -0.52344,10.20703 -0.19628,1.57031 -0.6761,3.07617 -1.43945,4.51563 -0.74154,1.41764 -2.13737,2.77929 -4.1875,4.08789 1.94108,1.17773 3.34831,2.58495 4.2207,4.2207 0.89421,1.63574 1.41764,3.99121 1.57031,7.06641 l 0.49024,7.62304 c 0.19629,0.91602 0.66471,1.60449 1.40625,2.0625 0.58608,0.37923 1.79701,0.60214 3.58203,0.68164 v 0 c 9.79728,0.27354 88.60516,-5.94685 88.99023,-63.70703 -9.4e-4,-0.14609 -0.0101,-0.27513 -0.0117,-0.41992 H 289 V 67 h -0.2207 c 0.13491,-0.99582 0.20858,-1.997263 0.2207,-3 0,-15.463973 -14.32689,-28 -32,-28 z m 32,111 c 0,0.14208 -0.009,0.27846 -0.01,0.41992 10e-4,0.19679 0.01,0.38092 0.01,0.58008 z M 37,86 C 16.565464,86 0,99.879173 0,117 v 75 c 0,59.53018 90.066288,63.69763 100,63.97656 v 0 c 1.47328,-0.11073 2.44079,-0.35659 2.86133,-0.75 0.60416,-0.54753 0.92708,-0.92513 0.96484,-2.60547 0.11328,-4.83333 0.28125,-7.92969 0.50781,-9.28906 0.24545,-1.37825 0.71941,-2.66211 1.41797,-3.85156 0.71745,-1.18945 1.83985,-2.22786 3.36914,-3.11524 -1.62369,-1.05728 -2.75651,-2.0957 -3.39843,-3.11523 -0.64193,-1.01953 -1.07617,-2.125 -1.30274,-3.31445 -0.22656,-1.20834 -0.39648,-3.43425 -0.50976,-6.68164 -0.11329,-3.26628 -0.24545,-5.13542 -0.39649,-5.60743 -0.15104,-0.472 -0.51823,-0.8789 -1.10351,-1.21875 -0.56641,-0.33984 -2.0306,-0.50976 -4.390629,-0.50976 v -0.0566 C 74.119235,214.29914 74.949754,198.54778 74,190 V 117 C 74,99.879173 57.434536,86 37,86 Z"
     id="rect10"
     inkscape:connector-curvature="0"
     sodipodi:nodetypes="sccccccscccccscccccccscsscccccscccsccccsscccscccccccccccccccccccsccccssscccccccccccccccss" />
  <g
     mask="url(#svg_cactus_mask)"
     id="g60"
     style="fill:#3e721d">
    <desc
       id="desc28">dots</desc>
    <circle
       cx="193"
       cy="22"
       id="ellipse30"
       r="8" />
    <circle
       cx="105"
       cy="55"
       id="ellipse32"
       r="8" />
    <circle
       cx="171"
       cy="77"
       id="ellipse34"
       r="8" />
    <circle
       cx="129"
       cy="138"
       id="ellipse36"
       r="8" />
    <circle
       cx="163"
       cy="207"
       id="ellipse38"
       r="8" />
    <circle
       cx="199"
       cy="242"
       id="ellipse40"
       r="8" />
    <circle
       cx="140"
       cy="290"
       id="ellipse42"
       r="8" />
    <!-- <ellipse cx="109" cy="252" rx="8" ry="8"/> -->
    <!-- <ellipse cx="138" cy="404" rx="8" ry="8"/> -->
    <!-- -->
    <circle
       cx="38"
       cy="125"
       id="ellipse44"
       r="8" />
    <circle
       cx="54"
       cy="180"
       id="ellipse46"
       r="8" />
    <circle
       cx="15"
       cy="220"
       id="ellipse48"
       r="8" />
    <circle
       cx="66"
       cy="240"
       id="ellipse50"
       r="8" />
    <!-- -->
    <circle
       cx="270"
       cy="66"
       id="ellipse52"
       r="8" />
    <circle
       cx="251"
       cy="101"
       id="ellipse54"
       r="8" />
    <circle
       cx="281"
       cy="151"
       id="ellipse56"
       r="8" />
    <circle
       cx="233"
       cy="190"
       id="ellipse58"
       r="8" />
    <!-- -->
  </g>
  <g
     font-weight="bold"
     id="g6"
     style="font-weight:bold;font-family:Impact">
    <g
       aria-label="{"
       style="font-size:67px"
       id="text2" />
    <g
       aria-label="}"
       style="font-size:58px"
       id="text4" />
  </g>
</svg>
