<?xml version="1.0" encoding="UTF-8" standalone="no"?>
<svg xmlns="http://www.w3.org/2000/svg" viewBox="0 0 19 32">
<!-- <svg xmlns="http://www.w3.org/2000/svg" viewBox="0 25 5 10"> -->
  <g
    fill="#5da234"
    stroke="green"
    stroke-width="0.05"
  >
    <g data-letter="clockwise" style="display:none">
      <path
        data-icon="corner"
        transform="translate( 0 0 )"
        d="
          M 0 1

          a 1 1 0 0 1 1 -1
          a 1 1 0 0 1 1 1
          a 1 1 0 0 1 -1 1
          a 1 1 0 0 1 -1 -1
        "
      />

      <path
        data-icon="corner-small"
        transform="translate( 1 0 )"
        d="
          M 2 0.25

          a 0.25 0.25 0 0 1 0.25 -0.25
          a 0.25 0.25 0 0 1 0.25 0.25
          a 0.25 0.25 0 0 1 -0.25 0.25
          a 0.25 0.25 0 0 1 -0.25 -0.25
        "
      />

      <path
        data-icon="end"
        transform="translate( 2 0.5 )"
        d="
          M 2.5 0
          a 0.5 0.5 0 0 1 1 0
          a 0.5 0.5 0 0 1 0 1
          a 0.5 0.5 0 0 1 -1 0
          a 0.5 0.5 0 0 1 0 -1
        "
      />
    </g>

    <path data-letter="a"
      transform="translate( 0 2 )"
      d="
        M 0 2
        L 0 1
        a 1 1 0 0 1 1 -1
        L 2 0
        a 1 1 0 0 1 1 1
        L 3 2.5
        a 0.5 0.5 0 0 1 -1 0
        L 2 1.25
        a 0.25 0.25 0 0 0 -0.25 -0.25
        L 1.25 1
        a 0.25 0.25 0 0 0 -0.25 0.25
        L 1 1.75
        a 0.25 0.25 0 0 0 0.25 0.25
        L 1.25 2
        a 0.5 0.5 0 0 1 0 1
        L 1 3
        a 1 1 0 0 1 -1 -1
        Z
      "
    />

    <g data-letter="b">
      <!-- <path
        data-letter="b"
        transform="translate( 4 2 )"
        d="
          M 0 0.5
          a 0.5 0.5 0 0 1 1 0
          L 1 0.75
          a 0.25 0.25 0 0 0 0.25 0.25
          L 1.25 1
          a 1 1 0 0 1 1 1
          L 2.25 2.5
          a 0.5 0.5 0 0 1 -0.5 0.5

          L 1 3
          a 1 1 0 0 1 -1 -1
          Z

          M 1.125 1.625
          a 0.25 0.25 0 0 0 -0.25 0.25
          l 0 0.25
          a 0.25 0.25 0 0 0 0.25 0.25
          l 0.25 0
          a 0.25 0.25 0 0 0 0.25 -0.25
          l 0 -0.25
          a 0.25 0.25 0 0 0 -0.25 -0.25
          Z
        "
      /> -->

      <path
        data-letter="b"
        transform="translate( 4 1 )"
        d="
          M 0 0.5
          a 0.5 0.5 0 0 1 1 0
          L 1 2.75
          a 0.25 0.25 0 0 0.25 0.25
          L 1.75 3
          a 0.25 0.25 0 0 0.25 -0.25
          L 2 2.25
          a 0.25 0.25 0 0 0 -0.25 -0.25
          a 0.5 0.5 0 0 1 0 -1
          L 2 1
          a 1 1 0 0 1 1 1
          L 3 3
          a 1 1 0 0 1 -1 1
          L 1 4
          a 1 1 0 0 1 -1 -1
          Z
        "
      />

      <!-- <path
        data-letter="b"
        transform="translate( 4 2 )"
        d="
          M 0 0.5
          a 0.5 0.5 0 0 1 1 0
          L 1 1.75
          a 0.25 0.25 0 0 0.25 0.25
          L 1.75 2
          a 0.5 0.5 0 0 1 0 -1
          L 2 1
          a 1 1 0 0 1 1 1
          L 3 2
          a 1 1 0 0 1 -1 1
          L 1 3
          a 1 1 0 0 1 -1 -1
          Z
        "
      /> -->

      <!-- <path
        data-letter="b"
        transform="translate( 4 2 )"
        d="
          M 0 0.5
          a 0.5 0.5 0 0 1 1 0
          L 1 1.75
          a 0.25 0.25 0 0 0.25 0.25
          L 1.75 2
          a 0.125 0.125 0 0 0 0 -0.25
          a 0.25 0.25 0 0 1 0 -0.5
          L 2.75 1.25
          a 0.25 0.25 0 0 1 0.25 0.25
          L 3 2
          a 1 1 0 0 1 -1 1
          L 1 3
          a 1 1 0 0 1 -1 -1
          Z
        "
      /> -->
    </g>

    <path data-letter="c"
      transform="translate( 8 2 )"
      d="
        M 0 1
        A 1 1 0 0 1 1 0
        L 2 0
        A 0.5 0.5 0 0 1 2 1
        L 1.25 1
        A 0.25 0.25 0 0 0 1 1.25
        L 1 1.75
        A 0.25 0.25 0 0 0 1.25 2
        L 2 2
        A 0.5 0.5 0 0 1 2 3
        L 1 3
        A 1 1 0 0 1 0 2
        Z
      "
    />

    <g data-letter="d">
      <!-- <path
        data-letter="d"
        transform="translate( 12 2 )"
        d="
          M 1.25 0.5
          a 0.5 0.5 0 0 1 1 0
          l 0 1.5
          a 1 1 0 0 1 -1 1
          l -0.75 0
          a 0.5 0.5 0 0 1 -0.5 -0.5
          l 0 -0.5
          a 1 1 0 0 1 1 -1

          a 0.25 0.25 0 0 0 0.25 -0.25
          Z

          M 0.975 1.625
          a 0.25 0.25 0 0 0 -0.25 0.25
          l 0 0.25
          a 0.25 0.25 0 0 0 0.25 0.25
          l 0.25 0
          a 0.25 0.25 0 0 0 0.25 -0.25
          l 0 -0.25
          a 0.25 0.25 0 0 0 -0.25 -0.25
          Z
        "
      /> -->

      <path
        data-letter="d"
        transform="translate( 12 1 )"
        d="
          M 0 2
          a 1 1 0 0 1 1 -1
          L 1.25 1
          a 0.5 0.5 0 0 1 0 1
          a 0.25 0.25 0 0 0 -0.25 0.25
          L 1 2.75
          a 0.25 0.25 0 0 0 0.25 0.25
          L 1.75 3
          a 0.25 0.25 0 0 0 0.25 -0.25
          L 2 0.5
          a 0.5 0.5 0 0 1 1 0
          L 3 3
          a 1 1 0 0 1 -1 1
          L 1 4
          a 1 1 0 0 1 -1 -1
        "
      />
    </g>

    <g data-letter="e">
      <path
        data-letter="e"
        transform="translate( 16 2 )"
        d="
          M 0 1
          a 1 1 0 0 1 1 -1
          L 2 0
          a 1 1 0 0 1 1 1
          L 3 1.25
          a 0.5 0.5 0 0 1 -0.5 0.5
          L 1.125 1.75
          a 0.125 0.125 0 0 0 0 0.25
          L 2 2
          A 0.5 0.5 0 0 1 2 3
          L 1 3
          A 1 1 0 0 1 0 2
          Z

          M 1.25 1.25
          L 1.875 1.25
          a 0.125 0.125 0 0 0 0 -0.25
          L 1.125 1
          a 0.125 0.125 0 0 0 0 0.25
          Z
        "
      />

      <!-- <path
        data-letter="e"
        data-transform="translate( 16 2 )"
        transform="translate( 8 29 )"
        d="
          M 0 1
          a 1 1 0 0 1 1 -1
          L 2 0
          a 1 1 0 0 1 1 1
          L 3 1.25
          a 0.5 0.5 0 0 1 -0.5 0.5
          L 1.125 1.75
          a 0.125 0.125 0 0 0 0 0.25
          L 2.5 2
          a 0.5 0.5 0 0 1 0 1
          L 1 3
          A 1 1 0 0 1 0 2
          Z

          M 1.25 1.25
          L 1.875 1.25
          a 0.125 0.125 0 0 0 0 -0.25
          L 1.125 1
          a 0.125 0.125 0 0 0 0 0.25
          Z
        "
      /> -->
    </g>

    <g data-letter="f">
      <!-- <path
        data-letter="f"
        transform="translate( 0 8 )"
        d="
          M 0 1
          a 1 1 0 0 1 1 -1
          L 2.5 0
          a 0.5 0.5 0 0 1 0 1
          L 1.25 1
          a 0.25 0.25 0 0 0 -0.25 0.25
          L 2.5 1.25
          a 0.5 0.5 0 0 1 -0.5 0.5
          L 1.25 1.75
          a 0.25 0.25 0 0 0 -0.25 0.25
          L 1 2.5
          a 0.5 0.5 0 0 1 -1 0
          Z
        "
      /> -->

      <path
        data-letter="f"
        transform="translate( 0 8 )"
        d="
          M 0 1
          a 1 1 0 0 1 1 -1
          L 2.5 0
          a 0.5 0.5 0 0 1 0 1
          L 1.25 1
          a 0.125 0.125 0 0 0 0 0.25
          L 2 1.25
          a 0.25 0.25 0 0 1 0 0.5
          L 1.25 1.75
          a 0.25 0.25 0 0 0 -0.25 0.25
          L 1 2.5
          a 0.5 0.5 0 0 1 -1 0
          Z
        "
      />
    </g>

    <path data-letter="g"
      transform="translate( 4 7 )"
      d="
        M 0 2
        a 1 1 0 0 1 1 -1
        L 2 1
        a 1 1 0 0 1 1 1
        L 3 4
        a 1 1 0 0 1 -1 1
        L 1.75 5
        a 0.5 0.5 0 0 1 0 -1
        a 0.25 0.25 0 0 0  0.25 -0.25
        L 2 2.25
        a 0.25 0.25 0 0 0 -0.25 -0.25
        L 1.25 2
        a 0.25 0.25 0 0 0 -0.25 0.25
        L 1 2.75
        a 0.25 0.25 0 0 0 0.25 0.25
        L 1.25 3
        a 0.5 0.5 0 0 1 0 1
        L 1 4
        a 1 1 0 0 1 -1 -1
        Z
      "
    />

    <g data-letter="h">
      <!-- <path
        data-letter="h"
        transform="translate( 8 8 )"
        d="
          M 0 0.5
          a 0.5 0.5 0 0 1 1 0

          L 1 0.75
          a 0.25 0.25 0 0 0 0.25 0.25
          a 1.75 1.5 0 0 1 1.75 1.5
          a 0.5 0.5 0 0 1 -1 0
          a 0.75 0.5 0 0 0 -0.75 -0.5
          a 0.25 0.25 0 0 0 -0.25 0.25

          L 1 2.5
          a 0.5 0.5 0 0 1 -1 0
          Z
        "
      /> -->

      <path
        data-letter="h"
        transform="translate( 8 8 )"
        d="
          M 0 0.5
          a 0.5 0.5 0 0 1 1 0
          L 1 0.75
          a 0.25 0.25 0 0 0 0.25 0.25
          L 1.75 1
          a 0.25 0.25 0 0 0 0.25 -0.25
          L 2 0.5
          a 0.5 0.5 0 0 1 1 0
          L 3 2.5
          a 0.5 0.5 0 0 1 -1 0
          L 2 2.25
          a 0.25 0.25 0 0 0 -0.25 -0.25
          L 1.25 2
          a 0.25 0.25 0 0 0 -0.25 0.25
          L 1 2.5
          a 0.5 0.5 0 0 1 -1 0
          Z
        "
      />
    </g>

    <path data-letter="i"
      transform="translate( 12 8 )"
      d="
        M 1 0.5
        a 0.5 0.5 0 0 1 1 0
        L 2 2.5
        a 0.5 0.5 0 0 1 -1 0
        Z
      "
    />

    <path data-letter="j"
      transform="translate( 16 8 )"
      d="
        M 1 0.5
        a 0.5 0.5 0 0 1 1 0
        L 2 2
        a 1 1 0 0 1 -1 1
        L 0.75 3
        a 0.5 0.5 0 0 1 0 -1
        a 0.25 0.25 0 0 0 0.25 -0.25
        Z
      "
    />

    <g data-letter="k">
      <!-- <path
        data-letter="k"
        transform="translate( 0 14 )"
        d="
          M 0 0.5
          a 0.5 0.5 0 0 1 1 0
          L 1 1
          L 1.5 0.5
          A 0.353 0.353 0 0 1 2 1
          L 1.5 1.5
          L 2.15 2.15
          a 0.353 0.353 0 0 1 -0.7 0.7
          L 1 2.4
          L 1 2.5
          a 0.5 0.5 0 0 1 -1 0
          Z
        "
      /> -->

      <path
        data-letter="k"
        transform="translate( 0 14 )"
        d="
          M 0 0.5
          a 0.5 0.5 0 0 1 1 0
          L 1 0.75
          a 0.25 0.25 0 0 0 0.25 0.25

          a 0.75 0.5 0 0 0 0.75 -0.5
          a 0.5 0.5 0 0 1 1 0
          a 1.75 1.5 0 0 1 -0.5 1
          a 1.75 1.5 0 0 1 0.5 1

          a 0.5 0.5 0 0 1 -1 0
          a 0.75 0.5 0 0 0 -0.75 -0.5
          a 0.25 0.25 0 0 0 -0.25 0.25

          L 1 2.5
          a 0.5 0.5 0 0 1 -1 0
          Z
        "
      />
    </g>

    <path data-letter="l"
      transform="translate( 4 14 )"
      d="
        M 0 0.5
        a 0.5 0.5 0 0 1 1 0
        L 1 1.75
        a 0.25 0.25 0 0 0 0.25 0.25
        L 2 2
        a 0.5 0.5 0 0 1 0 1
        L 1 3
        a 1 1 0 0 1 -1 -1
        Z
      "
    />

    <path data-letter="m"
      transform="translate( 8 14 )"
      d="
        M 0 2
        L 0 1
        a 1 1 0 0 1 1 -1
        L 2 0
        a 1 1 0 0 1 1 1
        L 3 2.5
        a 0.5 0.5 0 0 1 -1 0
        L 2 1.125

        a 0.125 0.125 0 0 0 -0.25 0
        L 1.75 1.75
        a 0.25 0.25 0 0 1 -0.5 0
        L 1.25 1.125
        a 0.125 0.125 0 0 0 -0.25 0

        L 1 2.5
        a 0.5 0.5 0 0 1 -1 0
        Z
      "
    />

    <path data-letter="n"
      transform="translate( 12 14 )"
      d="
        M 0 2
        L 0 1
        a 1 1 0 0 1 1 -1
        L 1.25 0
        a 0.5 0.5 0 0 1 0.5 0.5
        L 1.75 2.125
        a 0.125 0.125 0 0 0 0.25 0
        L 2 0.5
        a 0.5 0.5 0 0 1 1 0
        L 3 2
        a 1 1 0 0 1 -1 1
        L 1.75 3
        a 0.5 0.5 0 0 1 -0.5 -0.5
        L 1.25 1.125
        a 0.125 0.125 0 0 0 -0.25 0


        L 1 2.5
        a 0.5 0.5 0 0 1 -1 0
        Z
      "
    />

    <path data-letter="o"
      transform="translate( 16 14 )"
      d="
        M 0 2
        L 0 1
        a 1 1 0 0 1 1 -1
        L 2 0
        a 1 1 0 0 1 1 1
        L 3 2
        a 1 1 0 0 1 -1 1
        L 1 3
        a 1 1 0 0 1 -1 -1
        Z

        M 1 1.25
        L 1 1.75
        a 0.25 0.25 0 0 0 0.25 0.25
        L 1.75 2
        a 0.25 0.25 0 0 0 0.25 -0.25
        L 2 1.25
        a 0.25 0.25 0 0 0 -0.25 -0.25
        L 1.25 1
        a 0.25 0.25 0 0 0 -0.25 0.25
      "
    />

    <path data-letter="p"
      transform="translate( 0 20 )"
      d="
        M 0 1
        a 1 1 0 0 1 1 -1
        L 2 0
        a 1 1 0 0 1 1 1
        L 3 1.25
        a 0.5 0.5 0 0 1 -0.5 0.5
        L 1.25 1.75
        a 0.25 0.25 0 0 0 -0.25 0.25
        L 1 2.5
        a 0.5 0.5 0 0 1 -1 0
        Z

        M 1.25 1.25
        L 1.875 1.25
        a 0.125 0.125 0 0 0 0 -0.25
        L 1.125 1
        a 0.125 0.125 0 0 0 0 0.25
        Z
      "
    />

    <path data-letter="q"
      transform="translate( 4 20 )"
      d="
        M 0 2
        L 0 1
        a 1 1 0 0 1 1 -1
        L 2 0
        a 1 1 0 0 1 1 1
        a 2 2 0 0 1 -0.25 1
        l 0.09375 0.09375
        a 0.375 0.375 0 0 1 -0.75 0.75
        l -0.09375 -0.09375
        a 2 2 0 0 1 -1 0.25
        a 1 1 0 0 1 -1 -1
        Z

        M 1 1.25
        L 1 1.75
        a 0.25 0.25 0 0 0 0.25 0.25
        a 0.75 0.75 0 0 0.75 -0.75
        a 0.25 0.25 0 0 0 -0.25 -0.25
        L 1.25 1
        a 0.25 0.25 0 0 0 -0.25 0.25
      "
    />

    <path data-letter="r"
      transform="translate( 8 20 )"
      d="
        M 0 1
        a 1 1 0 0 1 1 -1
        L 2 0
        a 1 1 0 0 1 1 1
        L 3 1.25
        a 0.5 0.5 0 0 1 -0.5 0.5


        a 0.75 0.75 0 0 1 0.5 0.75
        a 0.5 0.5 0 0 1 -1 0
        a 0.75 0.5 0 0 0 -0.75 -0.5
        a 0.25 0.25 0 0 0 -0.25 0.25

        L 1 2.5
        a 0.5 0.5 0 0 1 -1 0
        Z

        M 1.25 1.25
        L 1.875 1.25
        a 0.125 0.125 0 0 0 0 -0.25
        L 1.125 1
        a 0.125 0.125 0 0 0 0 0.25
        Z
      "
    />

    <path data-letter="s"
      transform="translate( 12 20 )"
      d="
        M 0 1
        a 1 1 0 0 1 1 -1
        L 2.5 0
        a 0.5 0.5 0 0 1 0 1
        L 1.25 1
        a 0.125 0.125 0 0 0 0 0.25
        L 2.5 1.25
        a 0.5 0.5 0 0 1 0.5 0.5
        L 3 2
        a 1 1 0 0 1 -1 1
        L 0.5 3
        a 0.5 0.5 0 0 1 0 -1
        L 1.875 2
        a 0.125 0.125 0 0 0 0 -0.25
        L 0.5 1.75
        a 0.5 0.5 0 0 1 -0.5 -0.5
        Z
      "
    />

    <path data-letter="t"
      transform="translate( 16 20 )"
      d="
        M 0.5 1
        A 0.5 0.5 0 0 1 0.5 0
        L 2.5 0
        A 0.5 0.5 0 0 1 2.5 1
        L 2.25 1
        A 0.25 0.25 0 0 0 2 1.25
        L 2 2.5
        A 0.5 0.5 0 0 1 1 2.5
        L 1 1.25
        A 0.25 0.25 0 0 0 0.75 1
        Z
      "
    />

    <path data-letter="u"
      transform="translate( 0 25 )"
      d="
        M 0 0.5
        a 0.5 0.5 0 0 1 1 0
        L 1 1.75
        a 0.25 0.25 0 0 0 0.25 0.25
        L 1.75 2
        A 0.25 0.25 0 0 0 2 1.75
        L 2 0.5
        A 0.5 0.5 0 0 1 3 0.5
        L 3 2
        A 1 1 0 0 1 2 3
        L 1 3
        a 1 1 0 0 1 -1 -1
        Z
      "
    />

    <path data-letter="v"
      transform="translate( 4 25 )"
      d="
        M 0 0.5
        a 0.5 0.5 0 0 1 1 0
        a 0.5 1.5 0 0 0 1 0
        a 0.5 0.5 0 0 1 1 0
        a 1.5 2.5 0 0 1 -3 0
        Z
      "
    />

    <path data-letter="w"
      transform="translate( 8 25 )"
      d="
        M 0 0.5
        a 0.5 0.5 0 0 1 1 0
        L 1 1.75
        a 0.125 0.125 0 0 0 0.25 0
        L 1.25 1.25
        a 0.25 0.25 0 0 1 0.5 0
        L 1.75 1.75
        a 0.125 0.125 0 0 0 0.25 0
        L 2 0.5
        a 0.5 0.5 0 0 1 1 0
        L 3 2
        a 1 1 0 0 1 -1 1
        L 1 3
        a 1 1 0 0 1 -1 -1
        Z
      "
    />

    <path data-letter="x"
      transform="translate( 12 25 )"
      d="
        M 0.15625 0.90625
        a 0.375 0.375 0 0 1 0.75 -0.75
        L 1.4375 0.6875
        a 0.125 0.125 0 0 0 0.125 0

        L 2.09375 0.15625
        a 0.375 0.375 0 0 1 0.75 0.75
        L 2.3125 1.4375
        a 0.125 0.125 0 0 0 0 0.125

        L 2.84375 2.09375
        a 0.375 0.375 0 0 1 -0.75 0.75
        L 1.5625 2.3125
        a 0.125 0.125 0 0 0 -0.125 0

        L 0.90625 2.84375
        a 0.375 0.375 0 0 1 -0.75 -0.75
        L 0.6875 1.5625
        a 0.125 0.125 0 0 0 0 -0.125
        Z
      "
    />

    <g data-letter="y">
      <!-- <path data-letter="y"
        transform="translate( 16 25 )"
        d="
          M 0 0.5
          a 0.5 0.5 0 0 1 1 0
          a 0.5 0.5 0 0 0 1 0
          a 0.5 0.5 0 0 1 1 0

          L 3 1.25
          a 0.5 0.5 0 0 1 -0.5 0.5
          L 2.25 1.75

          a 0.25 0.25 0 0 0 -0.25 0.25
          L 2 2.5
          a 0.5 0.5 0 0 1 -1 0

          L 1 2
          a 0.25 0.25 0 0 0 -0.25 -0.25
          L 0.5 1.75
          a 0.5 0.5 0 0 1 -0.5 -0.5
          Z
        "
      /> -->

      <path data-letter="y"
        transform="translate( 16 25 )"
        d="
          M 0 0.5
          a 0.5 0.5 0 0 1 1 0
          L 1 1
          a 0.25 0.25 0 0 0 0.25 0.25
          L 1.75 1.25
          a 0.25 0.25 0 0 0 0.25 -0.25
          L 2 0.5
          a 0.5 0.5 0 0 1 1 0

          L 3 1.25
          a 0.5 0.5 0 0 1 -0.5 0.5
          L 2.25 1.75

          a 0.25 0.25 0 0 0 -0.25 0.25
          L 2 2.5
          a 0.5 0.5 0 0 1 -1 0

          L 1 2
          a 0.25 0.25 0 0 0 -0.25 -0.25
          L 0.5 1.75
          a 0.5 0.5 0 0 1 -0.5 -0.5
          Z
        "
      />
    </g>

    <g data-letter="z">
      <!-- <path data-letter="z"
        transform="translate( 8 29 )"
        d="
          M 0.5 1
          a 0.5 0.5 0 0 1 0 -1
          L 2 0
          a 1 1 0 0 1 1 1
          L 3 1.25
          a 0.5 0.5 0 0 1 -0.5 0.5
          L 1.25 1.75
          a 0.125 0.125 0 0 0 0 0.25
          L 2.5 2
          a 0.5 0.5 0 0 1 0 1
          L 1 3
          a 1 1 0 0 1 -1 -1
          L 0 1.75
          a 0.5 0.5 0 0 1 0.5 -0.5
          L 1.75 1.25
          a 0.125 0.125 0 0 0 0 -0.25
          Z
        "
      /> -->

      <!-- <path data-letter="z"
        transform="translate( 4 29 )"
        d="
          M 0.5 1
          a 0.5 0.5 0 0 1 0 -1
          L 2.5 0
          a 0.5 0.5 0 0 1 0.25 0.9375
          L 1 2

          L 2.5 2
          a 0.5 0.5 0 0 1 0 1
          L 0.5 3
          a 0.5 0.5 0 0 1 -0.25 -0.9375
          L 2 1
          Z
        "
      /> -->

      <path data-letter="z"
        transform="translate( 0 29 )"
        d="
          M 0.5 1
          a 0.5 0.5 0 0 1 0 -1
          L 2.25 0
          a 0.75 0.75 0 0 1 0.375 1.40625
          L 1.9375 1.765625
          a 0.125 0.125 0 0 0 0.0625 0.234375

          L 2.5 2
          a 0.5 0.5 0 0 1 0 1
          L 0.75 3
          a 0.75 0.75 0 0 1 -0.375 -1.40625
          L 1.0625 1.234375
          a 0.125 0.125 0 0 0 -0.0625 -0.234375
          Z
        "
      />
    </g>
  </g>
</svg>
