<?xml version="1.0" encoding="UTF-8"?>
<svg xmlns="http://www.w3.org/2000/svg" viewBox="0 0 3 5.5">
  <path data-letter="g" d="
    M 0 2
    a 1 1 0 0 1 1 -1
    L 2 1
    a 1 1 0 0 1 1 1
    L 3 4.5
    a 1 1 0 0 1 -1 1
    L 1.75 5.5
    a 0.5 0.5 0 0 1 0 -1
    a 0.25 0.25 0 0 0  0.25 -0.25
    L 2 2.25
    a 0.25 0.25 0 0 0 -0.25 -0.25
    L 1.25 2
    a 0.25 0.25 0 0 0 -0.25 0.25
    L 1 2.75
    a 0.25 0.25 0 0 0 0.25 0.25
    L 1.25 3
    a 0.5 0.5 0 0 1 0 1
    L 1 4
    a 1 1 0 0 1 -1 -1
    Z
  " />
</svg>
